<?xml version="1.0" encoding="utf-8"?>
<svg xmlns="http://www.w3.org/2000/svg" viewBox="0 0 16 16" width="96" height="96">
  <path d="M4.9394531 2C3.8414116 2 3 2.9126413 3 4L3 4.4980469C3 4.7419918 3.013519 5.0320038 3.1230469 5.3300781C3.1778109 5.4791153 3.2595409 5.6367963 3.4082031 5.7714844C3.5568653 5.9061725 3.7813483 5.9980469 4 5.9980469L5 5.9980469L5 7.9980469L6 7.9980469L6 5.9980469L10 5.9980469L10 8.9980469L4 8.9980469C2.9005621 8.9980469 2 9.8876862 2 10.998047L2 12.724609C2 13.328175 2.4302014 13.844298 3 13.96875L3 14.998047L4 14.998047L4 13.998047L13 13.998047L13 14.998047L14 14.998047L14 13.96875C14.56909 13.843623 14.998047 13.327558 14.998047 12.724609L14.998047 4C14.998047 2.8779435 14.068188 2 12.96875 2L4.9394531 2 z M 4.9394531 3L6 3L6 4L7 4L7 3L8 3L8 4L9 4L9 3L10 3L10 4L11 4L11 3L12.96875 3C13.559312 3 13.998047 3.4120565 13.998047 4L13.998047 12.724609C13.998047 12.88463 13.883931 12.998047 13.734375 12.998047L3.2636719 12.998047C3.1157635 12.998047 3 12.88463 3 12.724609L3 10.998047C3 10.398407 3.4094379 9.9980469 4 9.9980469L10 9.9980469C10.331408 9.9980469 10.519292 9.8433722 10.681641 9.6816406C10.843989 9.5199091 11 9.3301248 11 8.9980469L11 5.9980469C11 5.665969 10.843989 5.4761847 10.681641 5.3144531C10.519292 5.1527216 10.331408 4.9980469 10 4.9980469L4.0664062 4.9980469C4.0624762 4.9902369 4.0652169 4.9990386 4.0605469 4.9863281C4.0255752 4.8911527 4 4.6811019 4 4.4980469L4 4C4 3.3773587 4.3514946 3 4.9394531 3 z" fill="#9A9A9A" />
</svg>