<?xml version="1.0" encoding="utf-8"?>
<svg xmlns="http://www.w3.org/2000/svg" viewBox="0 0 16 16" width="96" height="96">
  <path d="M2.5 2C1.675781 2 1 2.675781 1 3.5L1 11.5C1 12.324219 1.675781 13 2.5 13L4 13L4 15.433594L7.652344 13L12.5 13C13.324219 13 14 12.324219 14 11.5L14 3.5C14 2.675781 13.324219 2 12.5 2 Z M 2.5 3L12.5 3C12.78125 3 13 3.21875 13 3.5L13 11.5C13 11.78125 12.78125 12 12.5 12L7.347656 12L5 13.566406L5 12L2.5 12C2.21875 12 2 11.78125 2 11.5L2 3.5C2 3.21875 2.21875 3 2.5 3 Z M 4.5 5C4.222656 5 4 5.222656 4 5.5L4 7.5C4 7.777344 4.222656 8 4.5 8L6 8C6 8.558594 5.558594 9 5 9L5 10C6.097656 10 7 9.097656 7 8L7 5.5C7 5.222656 6.777344 5 6.5 5 Z M 8.5 5C8.222656 5 8 5.222656 8 5.5L8 7.5C8 7.777344 8.222656 8 8.5 8L10 8C10 8.558594 9.558594 9 9 9L9 10C10.097656 10 11 9.097656 11 8L11 5.5C11 5.222656 10.777344 5 10.5 5Z" fill="#9A9A9A" />
</svg>