<?xml version="1.0" encoding="utf-8"?>
<svg xmlns="http://www.w3.org/2000/svg" viewBox="0 0 64 64" width="512" height="512">
  <path d="M42.207031 1.945313C37.511719 1.796875 33.238281 4.9375 32.042969 9.566406L26.984375 29.199219L21.074219 30.722656C20.644531 30.832031 20.195313 30.683594 19.984375 30.359375C17.75 26.992188 13.050781 25.480469 8.554688 26.6875C2.960938 28.1875 -0.546875 33.304688 0.738281 38.097656C1.78125 41.984375 5.636719 44.453125 10.140625 44.453125C11.132813 44.453125 12.15625 44.332031 13.1875 44.078125C16.714844 43.222656 18.683594 40.992188 19.859375 39.660156L20.003906 39.5C20.226563 39.246094 20.5625 39.125 20.894531 39.171875L23.792969 39.601563C24.09375 39.644531 24.394531 39.671875 24.691406 39.683594C24.707031 39.984375 24.734375 40.289063 24.78125 40.59375L25.210938 43.511719C25.257813 43.835938 25.148438 44.15625 24.914063 44.375L24.734375 44.546875C23.421875 45.765625 21.230469 47.804688 20.308594 51.167969C19.5 54.109375 19.84375 57.199219 21.246094 59.652344C22.398438 61.664063 24.1875 63.082031 26.28125 63.640625C26.957031 63.824219 27.636719 63.910156 28.324219 63.910156C30.035156 63.910156 31.746094 63.355469 33.296875 62.273438C35.414063 60.796875 36.976563 58.507813 37.695313 55.828125C38.902344 51.332031 37.390625 46.632813 34.019531 44.402344C33.699219 44.1875 33.550781 43.734375 33.660156 43.308594L35.1875 37.394531L54.816406 32.339844C59.75 31.0625 62.996094 26.289063 62.363281 21.230469C62.328125 20.945313 62.171875 20.6875 61.933594 20.527344C61.695313 20.367188 61.402344 20.316406 61.121094 20.386719L38.035156 26.34375L43.996094 3.257813C44.066406 2.980469 44.015625 2.683594 43.855469 2.445313C43.691406 2.210938 43.433594 2.050781 43.152344 2.015625C42.835938 1.976563 42.519531 1.953125 42.207031 1.945313 Z M 59.46875 2.078125C59.214844 2.078125 58.960938 2.175781 58.765625 2.371094C58.371094 2.761719 58.371094 3.394531 58.765625 3.785156L60.175781 5.203125C60.371094 5.394531 60.628906 5.492188 60.886719 5.492188C61.140625 5.492188 61.398438 5.394531 61.59375 5.203125C61.984375 4.808594 61.984375 4.179688 61.59375 3.789063L60.175781 2.371094C59.980469 2.175781 59.726563 2.078125 59.46875 2.078125 Z M 41.753906 3.9375L31.71875 42.808594C31.394531 44.070313 31.875 45.378906 32.917969 46.066406C35.578125 47.832031 36.746094 51.632813 35.761719 55.3125C35.164063 57.535156 33.886719 59.425781 32.15625 60.632813C30.476563 61.804688 28.574219 62.1875 26.800781 61.710938C25.226563 61.289063 23.867188 60.203125 22.980469 58.65625C21.839844 56.664063 21.566406 54.128906 22.234375 51.695313C23.007813 48.882813 24.867188 47.152344 26.09375 46.011719L26.28125 45.839844C26.992188 45.171875 27.332031 44.191406 27.1875 43.21875L26.761719 40.296875C26.621094 39.371094 26.671875 38.4375 26.90625 37.53125L33.980469 10.0625C34.90625 6.476563 38.136719 4 41.753906 3.9375 Z M 55.9375 5.617188C55.679688 5.617188 55.425781 5.710938 55.230469 5.90625C54.835938 6.300781 54.835938 6.929688 55.230469 7.320313L56.640625 8.734375C56.835938 8.929688 57.09375 9.03125 57.347656 9.03125C57.605469 9.03125 57.863281 8.929688 58.058594 8.734375C58.449219 8.34375 58.449219 7.714844 58.058594 7.320313L56.640625 5.90625C56.445313 5.710938 56.191406 5.617188 55.9375 5.617188 Z M 52.398438 9.148438C52.144531 9.148438 51.886719 9.246094 51.691406 9.445313C51.300781 9.835938 51.300781 10.464844 51.691406 10.859375L53.105469 12.269531C53.300781 12.464844 53.554688 12.5625 53.8125 12.5625C54.070313 12.5625 54.324219 12.464844 54.519531 12.269531C54.910156 11.878906 54.910156 11.25 54.519531 10.859375L53.105469 9.445313C52.910156 9.246094 52.652344 9.148438 52.398438 9.148438 Z M 48.863281 12.6875C48.609375 12.6875 48.351563 12.785156 48.15625 12.980469C47.765625 13.371094 47.765625 14.003906 48.15625 14.394531L49.570313 15.808594C49.765625 16.003906 50.019531 16.101563 50.277344 16.101563C50.535156 16.101563 50.789063 16.003906 50.984375 15.808594C51.375 15.417969 51.375 14.785156 50.984375 14.394531L49.570313 12.980469C49.375 12.785156 49.117188 12.6875 48.863281 12.6875 Z M 45.328125 16.21875C45.074219 16.21875 44.816406 16.316406 44.621094 16.515625C44.230469 16.90625 44.230469 17.535156 44.621094 17.925781L46.035156 19.34375C46.230469 19.539063 46.484375 19.636719 46.742188 19.636719C47 19.636719 47.253906 19.539063 47.449219 19.34375C47.839844 18.953125 47.839844 18.320313 47.449219 17.929688L46.035156 16.515625C45.839844 16.316406 45.582031 16.21875 45.328125 16.21875 Z M 41.792969 19.753906C41.535156 19.753906 41.28125 19.855469 41.085938 20.050781C40.695313 20.441406 40.695313 21.074219 41.085938 21.464844L42.5 22.878906C42.695313 23.074219 42.949219 23.171875 43.207031 23.171875C43.464844 23.171875 43.71875 23.074219 43.914063 22.878906C44.304688 22.488281 44.304688 21.855469 43.914063 21.464844L42.5 20.050781C42.304688 19.855469 42.050781 19.753906 41.792969 19.753906 Z M 60.441406 22.628906C60.378906 26.246094 57.90625 29.476563 54.316406 30.402344L35.753906 35.183594L37.464844 28.558594 Z M 11.679688 28.269531C14.4375 28.269531 16.96875 29.433594 18.3125 31.464844C19 32.503906 20.3125 32.984375 21.574219 32.65625L26.414063 31.40625L24.96875 37.03125C24.914063 37.25 24.875 37.464844 24.835938 37.683594C24.585938 37.671875 24.332031 37.65625 24.082031 37.621094L21.1875 37.195313C20.183594 37.046875 19.179688 37.414063 18.503906 38.171875L18.359375 38.339844C17.207031 39.644531 15.628906 41.425781 12.714844 42.136719C8.066406 43.265625 3.65625 41.265625 2.671875 37.578125C1.671875 33.851563 4.542969 29.832031 9.070313 28.621094C9.941406 28.386719 10.820313 28.269531 11.679688 28.269531 Z M 11.308594 30.191406C10.730469 30.191406 10.140625 30.265625 9.554688 30.421875C8.058594 30.824219 6.78125 31.699219 5.953125 32.886719C5.089844 34.125 4.8125 35.550781 5.179688 36.90625C5.539063 38.265625 6.496094 39.363281 7.863281 40.003906C8.664063 40.378906 9.550781 40.570313 10.457031 40.570313C11.039063 40.570313 11.628906 40.492188 12.210938 40.339844C15.355469 39.496094 17.320313 36.585938 16.589844 33.851563C15.992188 31.632813 13.796875 30.199219 11.308594 30.191406 Z M 31.027344 30.9375C29.921875 30.9375 29.027344 31.832031 29.027344 32.9375C29.027344 34.042969 29.921875 34.9375 31.027344 34.9375C32.132813 34.9375 33.027344 34.042969 33.027344 32.9375C33.027344 31.832031 32.132813 30.9375 31.027344 30.9375 Z M 11.304688 32.191406C12.910156 32.191406 14.296875 33.035156 14.65625 34.371094C15.101563 36.039063 13.773438 37.847656 11.691406 38.40625C10.652344 38.683594 9.59375 38.609375 8.710938 38.195313C7.886719 37.808594 7.316406 37.167969 7.109375 36.390625C6.898438 35.617188 7.074219 34.777344 7.59375 34.03125C8.152344 33.230469 9.03125 32.636719 10.070313 32.359375C10.488281 32.246094 10.902344 32.191406 11.304688 32.191406 Z M 20.578125 40.96875C20.324219 40.96875 20.070313 41.066406 19.875 41.265625C19.480469 41.65625 19.480469 42.285156 19.875 42.675781L21.285156 44.09375C21.480469 44.285156 21.738281 44.386719 21.996094 44.386719C22.25 44.386719 22.507813 44.285156 22.703125 44.09375C23.09375 43.699219 23.09375 43.070313 22.703125 42.675781L21.285156 41.265625C21.089844 41.066406 20.835938 40.96875 20.578125 40.96875 Z M 17.046875 44.503906C16.789063 44.503906 16.535156 44.601563 16.339844 44.796875C15.945313 45.1875 15.945313 45.820313 16.339844 46.214844L17.75 47.628906C17.945313 47.824219 18.199219 47.921875 18.457031 47.921875C18.714844 47.921875 18.96875 47.824219 19.164063 47.628906C19.554688 47.238281 19.554688 46.605469 19.164063 46.214844L17.75 44.796875C17.554688 44.601563 17.300781 44.503906 17.046875 44.503906 Z M 29.480469 47.886719C28.488281 47.851563 27.492188 48.15625 26.601563 48.78125C25.464844 49.574219 24.625 50.796875 24.246094 52.222656C23.859375 53.65625 23.972656 55.132813 24.5625 56.390625C25.175781 57.703125 26.230469 58.617188 27.535156 58.96875C27.910156 59.066406 28.289063 59.113281 28.671875 59.113281C29.613281 59.113281 30.554688 58.8125 31.402344 58.21875C32.539063 57.425781 33.375 56.203125 33.753906 54.773438C34.140625 53.34375 34.027344 51.867188 33.4375 50.609375C32.824219 49.296875 31.769531 48.382813 30.464844 48.03125C30.140625 47.945313 29.8125 47.898438 29.480469 47.886719 Z M 13.507813 48.042969C13.253906 48.042969 12.996094 48.136719 12.800781 48.332031C12.410156 48.726563 12.410156 49.355469 12.800781 49.75L14.21875 51.160156C14.410156 51.355469 14.667969 51.453125 14.921875 51.453125C15.179688 51.453125 15.4375 51.355469 15.628906 51.160156C16.023438 50.769531 16.023438 50.140625 15.628906 49.75L14.214844 48.332031C14.019531 48.136719 13.761719 48.042969 13.507813 48.042969 Z M 29.394531 49.886719C29.582031 49.890625 29.765625 49.917969 29.949219 49.964844C30.671875 50.160156 31.265625 50.691406 31.625 51.460938C32.015625 52.289063 32.085938 53.28125 31.824219 54.257813C31.5625 55.234375 31.007813 56.058594 30.253906 56.578125C29.558594 57.066406 28.773438 57.226563 28.050781 57.035156C27.328125 56.839844 26.734375 56.308594 26.375 55.539063C25.984375 54.710938 25.914063 53.71875 26.175781 52.742188C26.4375 51.765625 26.992188 50.941406 27.746094 50.421875C28.269531 50.054688 28.839844 49.875 29.394531 49.886719 Z M 9.972656 51.578125C9.714844 51.578125 9.460938 51.671875 9.265625 51.871094C8.875 52.261719 8.875 52.894531 9.265625 53.28125L10.683594 54.699219C10.875 54.890625 11.132813 54.988281 11.390625 54.988281C11.644531 54.988281 11.902344 54.890625 12.09375 54.699219C12.488281 54.304688 12.488281 53.671875 12.09375 53.28125L10.679688 51.871094C10.484375 51.671875 10.230469 51.578125 9.972656 51.578125 Z M 6.4375 55.113281C6.183594 55.113281 5.925781 55.210938 5.730469 55.40625C5.339844 55.796875 5.339844 56.429688 5.730469 56.820313L7.144531 58.234375C7.339844 58.429688 7.59375 58.527344 7.851563 58.527344C8.109375 58.527344 8.363281 58.429688 8.558594 58.234375C8.949219 57.84375 8.949219 57.210938 8.558594 56.820313L7.144531 55.40625C6.949219 55.210938 6.691406 55.113281 6.4375 55.113281 Z M 2.902344 58.648438C2.648438 58.648438 2.390625 58.746094 2.195313 58.941406C1.804688 59.332031 1.804688 59.964844 2.195313 60.355469L3.609375 61.769531C3.804688 61.964844 4.058594 62.0625 4.316406 62.0625C4.574219 62.0625 4.828125 61.964844 5.023438 61.769531C5.414063 61.378906 5.414063 60.746094 5.023438 60.355469L3.609375 58.941406C3.414063 58.746094 3.15625 58.648438 2.902344 58.648438Z" fill="#9A9A9A" />
</svg>