<?xml version="1.0" encoding="utf-8"?>
<svg xmlns="http://www.w3.org/2000/svg" viewBox="0 0 16 16" width="96" height="96">
  <path d="M6.5 2 A 0.50005 0.50005 0 0 0 6.3242188 2.03125L2.3242188 3.53125 A 0.50005 0.50005 0 0 0 2 4L2 6.5 A 0.50005 0.50005 0 0 0 2.5 7L4 7L4 13.5 A 0.50005 0.50005 0 0 0 4.5 14L11.5 14 A 0.50005 0.50005 0 0 0 12 13.5L12 7L13.5 7 A 0.50005 0.50005 0 0 0 14 6.5L14 4 A 0.50005 0.50005 0 0 0 13.675781 3.53125L9.6757812 2.03125 A 0.50005 0.50005 0 0 0 9.5 2L6.5 2 z M 7.0019531 3L8.9980469 3C8.9964864 3.0235035 8.9783527 3.2718204 8.8496094 3.5214844C8.7146847 3.7831329 8.5544422 4 8 4C7.4455578 4 7.2853153 3.7831354 7.1503906 3.5214844C7.0216472 3.2718204 7.0035135 3.0235035 7.0019531 3 z M 6.0234375 3.2128906C6.0441731 3.389135 6.0910702 3.6513755 6.2597656 3.9785156C6.5115909 4.4668671 7.1014422 5 8 5C8.8985578 5 9.4884091 4.4668646 9.7402344 3.9785156C9.9089296 3.6513755 9.9558268 3.389135 9.9765625 3.2128906L13 4.3476562L13 6L11.5 6 A 0.50005 0.50005 0 0 0 11 6.5L11 13L5 13L5 6.5 A 0.50005 0.50005 0 0 0 4.5 6L3 6L3 4.3457031L6.0234375 3.2128906 z" fill="#9A9A9A" />
</svg>