<?xml version="1.0" encoding="utf-8"?>
<svg xmlns="http://www.w3.org/2000/svg" viewBox="0 0 128 128" width="512" height="512">
  <path d="M64.59375 15.203125C61.55896 15.156738 58.5 15.519531 55.5 16.300781C53.9 16.700781 52.900391 18.4 53.400391 20C53.800391 21.6 55.499609 22.599609 57.099609 22.099609C64.599609 20.099609 72.5 21.4 79 25.5C77.6 33.7 66.4 42 64 42C61.6 42 49.699609 33.099609 49.099609 24.599609L49.099609 24.099609C49.099609 22.399609 47.799609 21.099609 46.099609 21.099609C45.799609 21.099609 45.500781 21.099219 45.300781 21.199219L41.900391 22.300781C23.400391 27.900781 11 44.7 11 64C11 65.7 12.3 67 14 67L31 67L31 114C31 115.7 32.3 117 34 117L94 117C95.7 117 97 115.7 97 114L97 67L114 67C115.7 67 117 65.7 117 64C117 44.7 104.60078 27.899219 86.300781 22.199219L83.400391 21.300781C77.831641 17.382031 71.270288 15.305176 64.59375 15.203125 z M 43.5 27.900391C46.2 38.100391 58.4 48 64 48C68 48 73.400391 43.900781 76.900391 40.300781C79.400391 37.800781 83.1 33.200391 84.5 27.900391C99.4 32.600391 109.70039 45.6 110.90039 61L97 61L97 54C97 52.3 95.7 51 94 51C92.3 51 91 52.3 91 54L91 111L37 111L37 54C37 52.3 35.7 51 34 51C32.3 51 31 52.3 31 54L31 61L17.099609 61C18.299609 45.7 28.6 32.600391 43.5 27.900391 z M 79 60 A 4 4 0 0 0 75 64 A 4 4 0 0 0 79 68 A 4 4 0 0 0 83 64 A 4 4 0 0 0 79 60 z" fill="#9A9A9A" />
</svg>